<svg xmlns="http://www.w3.org/2000/svg" viewBox="0 0 900 620" role="img" aria-labelledby="title desc">
  <title id="title">Earth system observation and modeling</title>
  <desc id="desc">A restrained scientific illustration of Earth observation, climate fields, hydrology, and remote sensing grids.</desc>
  <defs>
    <linearGradient id="sky" x1="0" x2="1" y1="0" y2="1">
      <stop offset="0" stop-color="#e9f7f6"/>
      <stop offset="0.48" stop-color="#f6f9fd"/>
      <stop offset="1" stop-color="#eef4ff"/>
    </linearGradient>
    <linearGradient id="ocean" x1="0" x2="1">
      <stop offset="0" stop-color="#0f766e"/>
      <stop offset="1" stop-color="#2563eb"/>
    </linearGradient>
    <filter id="soft" x="-20%" y="-20%" width="140%" height="140%">
      <feGaussianBlur stdDeviation="10"/>
    </filter>
  </defs>
  <rect width="900" height="620" fill="url(#sky)"/>
  <g opacity="0.45" stroke="#94a3b8" stroke-width="1">
    <path d="M0 120H900M0 220H900M0 320H900M0 420H900M0 520H900"/>
    <path d="M120 0V620M240 0V620M360 0V620M480 0V620M600 0V620M720 0V620"/>
  </g>
  <circle cx="228" cy="186" r="86" fill="#dbeafe"/>
  <circle cx="228" cy="186" r="58" fill="#bfdbfe"/>
  <path d="M176 182c30-44 84-48 116-9 16 19 19 47 6 71-36 13-85 4-122-25-10-8-10-25 0-37Z" fill="#0f766e" opacity="0.9"/>
  <path d="M171 205c44 16 98 18 139 3" fill="none" stroke="#f8fafc" stroke-width="5" stroke-linecap="round" opacity="0.82"/>
  <g transform="translate(454 128)">
    <rect x="0" y="0" width="286" height="206" rx="8" fill="#ffffff" stroke="#d9e1ea"/>
    <path d="M22 160c28-44 58-57 86-40 30 18 45 8 70-39 23-43 51-55 84-41" fill="none" stroke="#2563eb" stroke-width="5" stroke-linecap="round"/>
    <path d="M22 124c40-12 75-13 105 5 39 23 74 20 135-17" fill="none" stroke="#0f766e" stroke-width="4" stroke-linecap="round"/>
    <g fill="#0f172a" opacity="0.8">
      <circle cx="22" cy="160" r="4"/><circle cx="108" cy="120" r="4"/><circle cx="178" cy="81" r="4"/><circle cx="262" cy="40" r="4"/>
    </g>
    <g fill="#94a3b8">
      <rect x="22" y="24" width="72" height="8" rx="4"/>
      <rect x="22" y="42" width="118" height="6" rx="3"/>
    </g>
  </g>
  <g transform="translate(140 372)">
    <rect width="590" height="96" rx="8" fill="#ffffff" stroke="#d9e1ea"/>
    <g fill="#0f172a">
      <rect x="28" y="24" width="116" height="10" rx="5" opacity="0.9"/>
      <rect x="28" y="48" width="210" height="7" rx="3.5" opacity="0.45"/>
      <rect x="28" y="66" width="168" height="7" rx="3.5" opacity="0.35"/>
    </g>
    <g transform="translate(300 26)" fill="none" stroke-linecap="round" stroke-width="6">
      <path d="M0 34c28-28 52-35 76-20s44 11 72-18" stroke="#0f766e"/>
      <path d="M8 52c25-8 49-8 73 0 29 9 55 7 83-8" stroke="#2563eb"/>
    </g>
  </g>
  <g opacity="0.92">
    <circle cx="742" cy="438" r="8" fill="#0f766e"/>
    <circle cx="786" cy="386" r="6" fill="#2563eb"/>
    <circle cx="662" cy="96" r="6" fill="#0f766e"/>
    <path d="M742 438 786 386M662 96 604 150" stroke="#64748b" stroke-width="2" stroke-dasharray="4 7"/>
  </g>
  <g filter="url(#soft)" opacity="0.25">
    <ellipse cx="420" cy="588" rx="260" ry="24" fill="#0f172a"/>
  </g>
</svg>
